<svg xmlns="http://www.w3.org/2000/svg" viewBox="0 0 512 508.06"><defs><style>.cls-1{fill:#274c78;}.cls-2{fill:#a9bbc6;}.cls-3{font-size:52.11px;fill:#9d9d9c;font-family:JetBrainsMono-SemiBold, JetBrains Mono;font-weight:600;letter-spacing:0.02em;}</style></defs><g id="Calque_2" data-name="Calque 2"><g id="Calque_1-2" data-name="Calque 1"><path class="cls-1" d="M422.87,425.58,299,165.42h-.21c-1.7-4.26-3.58-8.49-5.74-12.67L239.88,45.15q-9.28-18.57-29-31.7T170.39,0H0V73.37A26.08,26.08,0,0,0,8,92.61a26.41,26.41,0,0,0,19.35,7.91,26.45,26.45,0,0,0,19.36-7.91,26.12,26.12,0,0,0,8-19.24V54.3h8c.49,0,.94.14,1.43.14H91.62v316.7H63.44a25.42,25.42,0,0,0-19,8.17,27,27,0,0,0-7.85,19.37,26.07,26.07,0,0,0,7.85,18.9,25.63,25.63,0,0,0,19,8H166.23a77.85,77.85,0,0,0,42.91-12.32,81.74,81.74,0,0,0,29.46-32.83l52.49-104.35,71.2,149.5Zm-168.58-212q0,14.1-9.92,34.91L191.21,354.17q-9,17.63-26.9,17.62H145.42V54.44H163q19.53,0,28.18,16.33l47.6,94.65h-.41l12.31,25.85A72.37,72.37,0,0,1,254.29,213.59Z"/><polygon class="cls-2" points="380.64 284.96 512 284.96 512 227.47 353.27 227.47 380.64 284.96"/><polygon class="cls-2" points="312.23 141.26 339.6 198.75 512 198.75 512 141.26 312.23 141.26"/><text class="cls-3" transform="translate(37.54 475.01)">text-display</text></g></g></svg>